{
	"patcher" : 	{
		"fileversion" : 1,
		"appversion" : 		{
			"major" : 8,
			"minor" : 6,
			"revision" : 4,
			"architecture" : "x64",
			"modernui" : 1
		}
,
		"classnamespace" : "box",
		"rect" : [ 816.0, 283.0, 1980.0, 1283.0 ],
		"bglocked" : 0,
		"openinpresentation" : 0,
		"default_fontsize" : 12.0,
		"default_fontface" : 0,
		"default_fontname" : "Arial",
		"gridonopen" : 2,
		"gridsize" : [ 15.0, 15.0 ],
		"gridsnaponopen" : 2,
		"objectsnaponopen" : 1,
		"statusbarvisible" : 2,
		"toolbarvisible" : 1,
		"lefttoolbarpinned" : 0,
		"toptoolbarpinned" : 0,
		"righttoolbarpinned" : 0,
		"bottomtoolbarpinned" : 0,
		"toolbars_unpinned_last_save" : 0,
		"tallnewobj" : 0,
		"boxanimatetime" : 200,
		"enablehscroll" : 1,
		"enablevscroll" : 1,
		"devicewidth" : 0.0,
		"description" : "",
		"digest" : "",
		"tags" : "",
		"style" : "",
		"subpatcher_template" : "OpenGrid",
		"assistshowspatchername" : 0,
		"boxes" : [ 			{
				"box" : 				{
					"id" : "obj-5",
					"maxclass" : "newobj",
					"numinlets" : 2,
					"numoutlets" : 2,
					"outlettype" : [ "", "" ],
					"patching_rect" : [ 225.0, 79.0, 163.0, 22.0 ],
					"text" : "routepass multichannelsignal"
				}

			}
, 			{
				"box" : 				{
					"id" : "obj-28",
					"maxclass" : "newobj",
					"numinlets" : 2,
					"numoutlets" : 2,
					"outlettype" : [ "", "" ],
					"patching_rect" : [ 31.0, 79.0, 163.0, 22.0 ],
					"text" : "routepass multichannelsignal"
				}

			}
, 			{
				"box" : 				{
					"data" : 					{
						"patcher" : 						{
							"fileversion" : 1,
							"appversion" : 							{
								"major" : 8,
								"minor" : 6,
								"revision" : 4,
								"architecture" : "x64",
								"modernui" : 1
							}
,
							"classnamespace" : "dsp.gen",
							"rect" : [ 34.0, 227.0, 3765.0, 1339.0 ],
							"bglocked" : 0,
							"openinpresentation" : 0,
							"default_fontsize" : 12.0,
							"default_fontface" : 0,
							"default_fontname" : "Arial",
							"gridonopen" : 2,
							"gridsize" : [ 15.0, 15.0 ],
							"gridsnaponopen" : 2,
							"objectsnaponopen" : 1,
							"statusbarvisible" : 2,
							"toolbarvisible" : 1,
							"lefttoolbarpinned" : 0,
							"toptoolbarpinned" : 0,
							"righttoolbarpinned" : 0,
							"bottomtoolbarpinned" : 0,
							"toolbars_unpinned_last_save" : 0,
							"tallnewobj" : 0,
							"boxanimatetime" : 200,
							"enablehscroll" : 1,
							"enablevscroll" : 1,
							"devicewidth" : 0.0,
							"description" : "",
							"digest" : "",
							"tags" : "",
							"style" : "",
							"subpatcher_template" : "OpenGrid",
							"assistshowspatchername" : 0,
							"boxes" : [ 								{
									"box" : 									{
										"maxclass" : "newobj",
										"text" : "in 1",
										"numoutlets" : 1,
										"outlettype" : [ "" ],
										"patching_rect" : [ 30.0, 30.0, 28.0, 22.0 ],
										"id" : "obj-1",
										"numinlets" : 0
									}

								}
, 								{
									"box" : 									{
										"maxclass" : "newobj",
										"text" : "in 2",
										"numoutlets" : 1,
										"outlettype" : [ "" ],
										"patching_rect" : [ 90.0, 30.0, 28.0, 22.0 ],
										"id" : "obj-2",
										"numinlets" : 0
									}

								}
, 								{
									"box" : 									{
										"maxclass" : "newobj",
										"text" : "xor",
										"numoutlets" : 1,
										"outlettype" : [ "" ],
										"patching_rect" : [ 30.0, 75.0, 29.5, 22.0 ],
										"id" : "obj-3",
										"numinlets" : 2
									}

								}
, 								{
									"box" : 									{
										"maxclass" : "newobj",
										"text" : "out 1",
										"numoutlets" : 0,
										"patching_rect" : [ 30.0, 120.0, 35.0, 22.0 ],
										"id" : "obj-4",
										"numinlets" : 1
									}

								}
 ],
							"lines" : [ 								{
									"patchline" : 									{
										"source" : [ "obj-1", 0 ],
										"destination" : [ "obj-3", 0 ]
									}

								}
, 								{
									"patchline" : 									{
										"source" : [ "obj-2", 0 ],
										"destination" : [ "obj-3", 1 ]
									}

								}
, 								{
									"patchline" : 									{
										"source" : [ "obj-3", 0 ],
										"destination" : [ "obj-4", 0 ]
									}

								}
 ]
						}

					}
,
					"id" : "obj-4",
					"maxclass" : "newobj",
					"numinlets" : 2,
					"numoutlets" : 1,
					"outlettype" : [ "multichannelsignal" ],
					"patching_rect" : [ 30.0, 120.0, 128.0, 22.0 ],
					"style" : "wa.patcher",
					"text" : "mc.gen~ @tilte bit_xor",
					"wrapper_uniquekey" : "u551005953"
				}

			}
, 			{
				"box" : 				{
					"comment" : "",
					"id" : "obj-3",
					"index" : 2,
					"maxclass" : "inlet",
					"numinlets" : 0,
					"numoutlets" : 1,
					"outlettype" : [ "" ],
					"patching_rect" : [ 225.0, 30.0, 30.0, 30.0 ]
				}

			}
, 			{
				"box" : 				{
					"comment" : "",
					"id" : "obj-1",
					"index" : 1,
					"maxclass" : "inlet",
					"numinlets" : 0,
					"numoutlets" : 1,
					"outlettype" : [ "" ],
					"patching_rect" : [ 30.0, 30.0, 30.0, 30.0 ]
				}

			}
, 			{
				"box" : 				{
					"comment" : "",
					"id" : "obj-2",
					"index" : 1,
					"maxclass" : "outlet",
					"numinlets" : 1,
					"numoutlets" : 0,
					"patching_rect" : [ 30.0, 165.0, 30.0, 30.0 ]
				}

			}
 ],
		"lines" : [ 			{
				"patchline" : 				{
					"destination" : [ "obj-28", 0 ],
					"source" : [ "obj-1", 0 ]
				}

			}
, 			{
				"patchline" : 				{
					"destination" : [ "obj-4", 0 ],
					"source" : [ "obj-28", 0 ]
				}

			}
, 			{
				"patchline" : 				{
					"destination" : [ "obj-5", 0 ],
					"source" : [ "obj-3", 0 ]
				}

			}
, 			{
				"patchline" : 				{
					"destination" : [ "obj-2", 0 ],
					"source" : [ "obj-4", 0 ]
				}

			}
, 			{
				"patchline" : 				{
					"destination" : [ "obj-4", 1 ],
					"source" : [ "obj-5", 0 ]
				}

			}
 ],
		"styles" : [ 			{
				"name" : "wa.patcher",
				"default" : 				{
					"accentcolor" : [ 0.439216, 0.74902, 0.254902, 1.0 ]
				}
,
				"parentstyle" : "",
				"multi" : 0
			}
 ]
	}

}
