{
	"patcher" : 	{
		"fileversion" : 1,
		"appversion" : 		{
			"major" : 9,
			"minor" : 0,
			"revision" : 0,
			"architecture" : "x64",
			"modernui" : 1
		}
,
		"classnamespace" : "box",
		"rect" : [ 34.0, 87.0, 3772.0, 1479.0 ],
		"gridonopen" : 2,
		"gridsize" : [ 15.0, 15.0 ],
		"gridsnaponopen" : 2,
		"subpatcher_template" : "OpenGrid",
		"boxes" : [ 			{
				"box" : 				{
					"id" : "obj-22",
					"maxclass" : "newobj",
					"numinlets" : 1,
					"numoutlets" : 1,
					"outlettype" : [ "bang" ],
					"patching_rect" : [ 870.0, 212.0, 58.0, 22.0 ],
					"text" : "loadbang"
				}

			}
, 			{
				"box" : 				{
					"id" : "obj-3",
					"maxclass" : "newobj",
					"numinlets" : 1,
					"numoutlets" : 2,
					"outlettype" : [ "", "" ],
					"patching_rect" : [ 945.0, 178.0, 55.0, 22.0 ],
					"text" : "trigger l l"
				}

			}
, 			{
				"box" : 				{
					"id" : "obj-23",
					"maxclass" : "newobj",
					"numinlets" : 2,
					"numoutlets" : 1,
					"outlettype" : [ "bang" ],
					"patching_rect" : [ 870.0, 255.0, 61.0, 22.0 ],
					"text" : "delay 500"
				}

			}
, 			{
				"box" : 				{
					"id" : "obj-20",
					"maxclass" : "newobj",
					"numinlets" : 1,
					"numoutlets" : 3,
					"outlettype" : [ "bang", "int", "int" ],
					"patching_rect" : [ 945.0, 255.0, 65.0, 22.0 ],
					"text" : "trigger b i i"
				}

			}
, 			{
				"box" : 				{
					"id" : "obj-19",
					"maxclass" : "newobj",
					"numinlets" : 0,
					"numoutlets" : 1,
					"outlettype" : [ "" ],
					"patching_rect" : [ 210.0, 205.0, 116.0, 22.0 ],
					"style" : "wa.receive",
					"text" : "receive #0_chans"
				}

			}
, 			{
				"box" : 				{
					"id" : "obj-17",
					"maxclass" : "newobj",
					"numinlets" : 1,
					"numoutlets" : 1,
					"outlettype" : [ "" ],
					"patching_rect" : [ 495.0, 300.0, 85.0, 22.0 ],
					"text" : "prepend spray"
				}

			}
, 			{
				"box" : 				{
					"id" : "obj-12",
					"maxclass" : "newobj",
					"numinlets" : 1,
					"numoutlets" : 1,
					"outlettype" : [ "" ],
					"patching_rect" : [ 30.0, 120.0, 145.0, 22.0 ],
					"text" : "prepend granular_sample"
				}

			}
, 			{
				"box" : 				{
					"id" : "obj-15",
					"maxclass" : "newobj",
					"numinlets" : 1,
					"numoutlets" : 1,
					"outlettype" : [ "" ],
					"patching_rect" : [ 639.75, 300.0, 105.0, 22.0 ],
					"text" : "prepend basenote"
				}

			}
, 			{
				"box" : 				{
					"id" : "obj-10",
					"maxclass" : "newobj",
					"numinlets" : 0,
					"numoutlets" : 1,
					"outlettype" : [ "" ],
					"patching_rect" : [ 945.0, 135.0, 116.0, 22.0 ],
					"style" : "wa.receive",
					"text" : "receive #0_chans"
				}

			}
, 			{
				"box" : 				{
					"id" : "obj-18",
					"maxclass" : "newobj",
					"numinlets" : 2,
					"numoutlets" : 2,
					"outlettype" : [ "", "" ],
					"patching_rect" : [ 945.0, 212.0, 71.0, 22.0 ],
					"text" : "route chans"
				}

			}
, 			{
				"box" : 				{
					"id" : "obj-13",
					"maxclass" : "newobj",
					"numinlets" : 2,
					"numoutlets" : 2,
					"outlettype" : [ "", "" ],
					"patching_rect" : [ 945.0, 435.0, 68.0, 22.0 ],
					"text" : "zl.group 30"
				}

			}
, 			{
				"box" : 				{
					"id" : "obj-1",
					"maxclass" : "newobj",
					"numinlets" : 1,
					"numoutlets" : 1,
					"outlettype" : [ "multichannelsignal" ],
					"patching_rect" : [ 945.0, 480.0, 50.0, 22.0 ],
					"text" : "mc.list~"
				}

			}
, 			{
				"box" : 				{
					"id" : "obj-14",
					"maxclass" : "newobj",
					"numinlets" : 1,
					"numoutlets" : 1,
					"outlettype" : [ "signal" ],
					"patching_rect" : [ 539.5, 435.0, 61.0, 22.0 ],
					"text" : "wa.relfreq"
				}

			}
, 			{
				"box" : 				{
					"id" : "obj-11",
					"maxclass" : "newobj",
					"numinlets" : 1,
					"numoutlets" : 1,
					"outlettype" : [ "signal" ],
					"patching_rect" : [ 464.5, 435.0, 61.0, 22.0 ],
					"text" : "wa.relfreq"
				}

			}
, 			{
				"box" : 				{
					"id" : "obj-9",
					"maxclass" : "newobj",
					"numinlets" : 1,
					"numoutlets" : 1,
					"outlettype" : [ "" ],
					"patching_rect" : [ 346.0, 212.0, 140.0, 22.0 ],
					"text" : "if $f1 < 0 then 1. else $f1"
				}

			}
, 			{
				"box" : 				{
					"id" : "obj-7",
					"maxclass" : "newobj",
					"numinlets" : 1,
					"numoutlets" : 0,
					"patching_rect" : [ 590.625, 240.0, 103.0, 22.0 ],
					"style" : "wa.send",
					"text" : "send #0_chans"
				}

			}
, 			{
				"box" : 				{
					"id" : "obj-8",
					"maxclass" : "newobj",
					"numinlets" : 1,
					"numoutlets" : 1,
					"outlettype" : [ "" ],
					"patching_rect" : [ 590.625, 205.0, 88.0, 22.0 ],
					"text" : "prepend chans"
				}

			}
, 			{
				"box" : 				{
					"id" : "obj-4",
					"maxclass" : "newobj",
					"numinlets" : 1,
					"numoutlets" : 6,
					"outlettype" : [ "signal", "bang", "int", "float", "", "list" ],
					"patching_rect" : [ 750.0, 165.0, 71.5, 22.0 ],
					"text" : "typeroute~"
				}

			}
, 			{
				"box" : 				{
					"id" : "obj-2",
					"maxclass" : "newobj",
					"numinlets" : 8,
					"numoutlets" : 8,
					"outlettype" : [ "", "", "", "", "", "", "", "" ],
					"patching_rect" : [ 345.0, 165.0, 389.0, 22.0 ],
					"text" : "route triggerintervall startpos grainsize spray spread channels basenote"
				}

			}
, 			{
				"box" : 				{
					"id" : "obj-121",
					"maxclass" : "newobj",
					"numinlets" : 1,
					"numoutlets" : 1,
					"outlettype" : [ "signal" ],
					"patching_rect" : [ 419.5, 435.0, 31.0, 22.0 ],
					"text" : "sig~"
				}

			}
, 			{
				"box" : 				{
					"id" : "obj-111",
					"maxclass" : "newobj",
					"numinlets" : 1,
					"numoutlets" : 1,
					"outlettype" : [ "signal" ],
					"patching_rect" : [ 380.5, 435.0, 31.0, 22.0 ],
					"text" : "sig~"
				}

			}
, 			{
				"box" : 				{
					"data" : 					{
						"patcher" : 						{
							"fileversion" : 1,
							"appversion" : 							{
								"major" : 9,
								"minor" : 0,
								"revision" : 0,
								"architecture" : "x64",
								"modernui" : 1
							}
,
							"classnamespace" : "dsp.gen",
							"rect" : [ 34.0, 227.0, 3204.0, 1339.0 ],
							"gridonopen" : 2,
							"gridsize" : [ 15.0, 15.0 ],
							"gridsnaponopen" : 2,
							"subpatcher_template" : "wa.main_template",
							"boxes" : [ 								{
									"box" : 									{
										"maxclass" : "newobj",
										"text" : "% 2",
										"patching_rect" : [ 636.0, 540.0, 29.0, 22.0 ],
										"outlettype" : [ "" ],
										"id" : "obj-45",
										"numinlets" : 1,
										"numoutlets" : 1
									}

								}
, 								{
									"box" : 									{
										"maxclass" : "newobj",
										"text" : "- 1",
										"patching_rect" : [ 636.0, 495.0, 23.0, 22.0 ],
										"outlettype" : [ "" ],
										"id" : "obj-42",
										"numinlets" : 1,
										"numoutlets" : 1
									}

								}
, 								{
									"box" : 									{
										"maxclass" : "newobj",
										"text" : "mc_channel",
										"patching_rect" : [ 636.0, 450.0, 73.0, 22.0 ],
										"outlettype" : [ "" ],
										"id" : "obj-44",
										"numinlets" : 0,
										"numoutlets" : 1
									}

								}
, 								{
									"box" : 									{
										"maxclass" : "comment",
										"text" : "pitch",
										"patching_rect" : [ 135.0, 270.0, 34.0, 20.0 ],
										"id" : "obj-43",
										"numinlets" : 1,
										"numoutlets" : 0
									}

								}
, 								{
									"box" : 									{
										"maxclass" : "newobj",
										"text" : "receive pitch",
										"patching_rect" : [ 415.0, 120.0, 76.0, 22.0 ],
										"style" : "wa.receive",
										"outlettype" : [ "" ],
										"id" : "obj-41",
										"numinlets" : 0,
										"numoutlets" : 1
									}

								}
, 								{
									"box" : 									{
										"maxclass" : "newobj",
										"text" : "receive trigger",
										"patching_rect" : [ 703.0, 180.0, 85.0, 22.0 ],
										"style" : "wa.receive",
										"outlettype" : [ "" ],
										"id" : "obj-40",
										"numinlets" : 0,
										"numoutlets" : 1
									}

								}
, 								{
									"box" : 									{
										"maxclass" : "newobj",
										"text" : "receive trigger",
										"patching_rect" : [ 627.0, 405.0, 85.0, 22.0 ],
										"style" : "wa.receive",
										"outlettype" : [ "" ],
										"id" : "obj-39",
										"numinlets" : 0,
										"numoutlets" : 1
									}

								}
, 								{
									"box" : 									{
										"maxclass" : "newobj",
										"text" : "send pitch",
										"patching_rect" : [ 30.0, 408.0, 63.0, 22.0 ],
										"style" : "wa.send",
										"id" : "obj-38",
										"numinlets" : 1,
										"numoutlets" : 0
									}

								}
, 								{
									"box" : 									{
										"maxclass" : "newobj",
										"text" : "receive trigger",
										"patching_rect" : [ 468.0, 30.0, 85.0, 22.0 ],
										"style" : "wa.receive",
										"outlettype" : [ "" ],
										"id" : "obj-35",
										"numinlets" : 0,
										"numoutlets" : 1
									}

								}
, 								{
									"box" : 									{
										"maxclass" : "newobj",
										"text" : "receive trigger",
										"patching_rect" : [ 78.0, 315.0, 85.0, 22.0 ],
										"style" : "wa.receive",
										"outlettype" : [ "" ],
										"id" : "obj-34",
										"numinlets" : 0,
										"numoutlets" : 1
									}

								}
, 								{
									"box" : 									{
										"maxclass" : "newobj",
										"text" : "send trigger",
										"patching_rect" : [ 30.0, 75.0, 72.0, 22.0 ],
										"style" : "wa.send",
										"id" : "obj-33",
										"numinlets" : 1,
										"numoutlets" : 0
									}

								}
, 								{
									"box" : 									{
										"maxclass" : "newobj",
										"text" : "+",
										"patching_rect" : [ 30.0, 315.0, 29.5, 22.0 ],
										"outlettype" : [ "" ],
										"id" : "obj-37",
										"numinlets" : 2,
										"numoutlets" : 1
									}

								}
, 								{
									"box" : 									{
										"maxclass" : "newobj",
										"text" : "*",
										"patching_rect" : [ 63.0, 255.0, 29.5, 22.0 ],
										"outlettype" : [ "" ],
										"id" : "obj-32",
										"numinlets" : 2,
										"numoutlets" : 1
									}

								}
, 								{
									"box" : 									{
										"maxclass" : "newobj",
										"text" : "noise",
										"patching_rect" : [ 78.0, 210.0, 37.0, 22.0 ],
										"outlettype" : [ "" ],
										"id" : "obj-36",
										"numinlets" : 0,
										"numoutlets" : 1
									}

								}
, 								{
									"box" : 									{
										"maxclass" : "newobj",
										"text" : "in 5 @comment pitch_spread",
										"patching_rect" : [ 63.0, 180.0, 165.0, 22.0 ],
										"outlettype" : [ "" ],
										"id" : "obj-27",
										"numinlets" : 0,
										"numoutlets" : 1
									}

								}
, 								{
									"box" : 									{
										"maxclass" : "newobj",
										"text" : "+",
										"patching_rect" : [ 382.0, 540.0, 29.5, 22.0 ],
										"outlettype" : [ "" ],
										"id" : "obj-31",
										"numinlets" : 2,
										"numoutlets" : 1
									}

								}
, 								{
									"box" : 									{
										"maxclass" : "newobj",
										"text" : "*",
										"patching_rect" : [ 463.0, 495.0, 29.5, 22.0 ],
										"outlettype" : [ "" ],
										"id" : "obj-30",
										"numinlets" : 2,
										"numoutlets" : 1
									}

								}
, 								{
									"box" : 									{
										"maxclass" : "newobj",
										"text" : "latch",
										"patching_rect" : [ 463.0, 450.0, 34.0, 22.0 ],
										"outlettype" : [ "" ],
										"id" : "obj-29",
										"numinlets" : 2,
										"numoutlets" : 1
									}

								}
, 								{
									"box" : 									{
										"maxclass" : "newobj",
										"text" : "mstosamps",
										"patching_rect" : [ 463.0, 405.0, 70.0, 22.0 ],
										"outlettype" : [ "" ],
										"id" : "obj-28",
										"numinlets" : 1,
										"numoutlets" : 1
									}

								}
, 								{
									"box" : 									{
										"maxclass" : "newobj",
										"text" : "param spray 0. @min 0. @max 1000.",
										"patching_rect" : [ 463.0, 360.0, 208.0, 22.0 ],
										"outlettype" : [ "" ],
										"id" : "obj-26",
										"numinlets" : 0,
										"numoutlets" : 1
									}

								}
, 								{
									"box" : 									{
										"maxclass" : "newobj",
										"text" : "latch",
										"patching_rect" : [ 568.0, 450.0, 34.0, 22.0 ],
										"outlettype" : [ "" ],
										"id" : "obj-25",
										"numinlets" : 2,
										"numoutlets" : 1
									}

								}
, 								{
									"box" : 									{
										"maxclass" : "newobj",
										"text" : "noise",
										"patching_rect" : [ 568.0, 405.0, 37.0, 22.0 ],
										"outlettype" : [ "" ],
										"id" : "obj-22",
										"numinlets" : 0,
										"numoutlets" : 1
									}

								}
, 								{
									"box" : 									{
										"maxclass" : "newobj",
										"text" : "*",
										"patching_rect" : [ 304.0, 180.0, 29.5, 22.0 ],
										"outlettype" : [ "" ],
										"id" : "obj-24",
										"numinlets" : 2,
										"numoutlets" : 1
									}

								}
, 								{
									"box" : 									{
										"maxclass" : "newobj",
										"text" : "*",
										"patching_rect" : [ 403.0, 180.0, 29.5, 22.0 ],
										"outlettype" : [ "" ],
										"id" : "obj-23",
										"numinlets" : 2,
										"numoutlets" : 1
									}

								}
, 								{
									"box" : 									{
										"maxclass" : "newobj",
										"text" : "latch",
										"patching_rect" : [ 30.0, 360.0, 34.0, 22.0 ],
										"outlettype" : [ "" ],
										"id" : "obj-21",
										"numinlets" : 2,
										"numoutlets" : 1
									}

								}
, 								{
									"box" : 									{
										"maxclass" : "newobj",
										"text" : "in 4 @comment pitch_offsert",
										"patching_rect" : [ 30.0, 135.0, 161.0, 22.0 ],
										"outlettype" : [ "" ],
										"id" : "obj-20",
										"numinlets" : 0,
										"numoutlets" : 1
									}

								}
, 								{
									"box" : 									{
										"maxclass" : "newobj",
										"text" : "latch",
										"patching_rect" : [ 545.0, 224.0, 34.0, 22.0 ],
										"outlettype" : [ "" ],
										"id" : "obj-19",
										"numinlets" : 2,
										"numoutlets" : 1
									}

								}
, 								{
									"box" : 									{
										"maxclass" : "newobj",
										"text" : "latch",
										"patching_rect" : [ 300.0, 75.0, 34.0, 22.0 ],
										"outlettype" : [ "" ],
										"id" : "obj-18",
										"numinlets" : 2,
										"numoutlets" : 1
									}

								}
, 								{
									"box" : 									{
										"maxclass" : "newobj",
										"text" : "/",
										"patching_rect" : [ 439.0, 645.0, 29.5, 22.0 ],
										"outlettype" : [ "" ],
										"id" : "obj-17",
										"numinlets" : 2,
										"numoutlets" : 1
									}

								}
, 								{
									"box" : 									{
										"maxclass" : "newobj",
										"text" : "*",
										"patching_rect" : [ 382.0, 750.0, 29.5, 22.0 ],
										"outlettype" : [ "" ],
										"id" : "obj-16",
										"numinlets" : 2,
										"numoutlets" : 1
									}

								}
, 								{
									"box" : 									{
										"maxclass" : "newobj",
										"text" : "sample granular_window @index phase @boundmode wrap",
										"patching_rect" : [ 439.0, 690.0, 330.0, 22.0 ],
										"outlettype" : [ "", "" ],
										"id" : "obj-3",
										"numinlets" : 2,
										"numoutlets" : 2
									}

								}
, 								{
									"box" : 									{
										"maxclass" : "newobj",
										"text" : "history",
										"patching_rect" : [ 304.0, 315.0, 44.0, 22.0 ],
										"outlettype" : [ "" ],
										"id" : "obj-15",
										"numinlets" : 1,
										"numoutlets" : 1
									}

								}
, 								{
									"box" : 									{
										"maxclass" : "newobj",
										"text" : "- 1",
										"patching_rect" : [ 406.0, 225.0, 23.0, 22.0 ],
										"outlettype" : [ "" ],
										"id" : "obj-14",
										"numinlets" : 1,
										"numoutlets" : 1
									}

								}
, 								{
									"box" : 									{
										"maxclass" : "newobj",
										"text" : "<",
										"patching_rect" : [ 304.0, 270.0, 29.5, 22.0 ],
										"outlettype" : [ "" ],
										"id" : "obj-13",
										"numinlets" : 2,
										"numoutlets" : 1
									}

								}
, 								{
									"box" : 									{
										"maxclass" : "newobj",
										"text" : "+",
										"patching_rect" : [ 380.0, 315.0, 75.0, 22.0 ],
										"outlettype" : [ "" ],
										"id" : "obj-12",
										"numinlets" : 2,
										"numoutlets" : 1
									}

								}
, 								{
									"box" : 									{
										"maxclass" : "newobj",
										"text" : "*",
										"patching_rect" : [ 544.0, 270.0, 29.5, 22.0 ],
										"outlettype" : [ "" ],
										"id" : "obj-11",
										"numinlets" : 2,
										"numoutlets" : 1
									}

								}
, 								{
									"box" : 									{
										"maxclass" : "newobj",
										"text" : "counter",
										"patching_rect" : [ 334.0, 225.0, 49.0, 22.0 ],
										"outlettype" : [ "", "", "" ],
										"id" : "obj-10",
										"numinlets" : 3,
										"numoutlets" : 3
									}

								}
, 								{
									"box" : 									{
										"maxclass" : "newobj",
										"text" : "peek granular_sample @boundmode wrap",
										"patching_rect" : [ 382.0, 585.0, 235.0, 22.0 ],
										"outlettype" : [ "", "" ],
										"id" : "obj-9",
										"numinlets" : 2,
										"numoutlets" : 2
									}

								}
, 								{
									"box" : 									{
										"maxclass" : "newobj",
										"text" : "mstosamps",
										"patching_rect" : [ 300.0, 120.0, 70.0, 22.0 ],
										"outlettype" : [ "" ],
										"id" : "obj-8",
										"numinlets" : 1,
										"numoutlets" : 1
									}

								}
, 								{
									"box" : 									{
										"maxclass" : "newobj",
										"text" : "in 3 @comment grain_size",
										"patching_rect" : [ 300.0, 30.0, 151.0, 22.0 ],
										"outlettype" : [ "" ],
										"id" : "obj-7",
										"numinlets" : 0,
										"numoutlets" : 1
									}

								}
, 								{
									"box" : 									{
										"maxclass" : "newobj",
										"text" : "buffer granular_window",
										"patching_rect" : [ 636.0, 720.0, 133.0, 22.0 ],
										"style" : "wa.buffer",
										"outlettype" : [ "", "" ],
										"id" : "obj-6",
										"numinlets" : 0,
										"numoutlets" : 2
									}

								}
, 								{
									"box" : 									{
										"maxclass" : "newobj",
										"text" : "buffer granular_sample",
										"patching_rect" : [ 604.0, 224.0, 132.0, 22.0 ],
										"style" : "wa.buffer",
										"outlettype" : [ "", "" ],
										"id" : "obj-5",
										"numinlets" : 0,
										"numoutlets" : 2
									}

								}
, 								{
									"box" : 									{
										"maxclass" : "newobj",
										"text" : "in 1 @comment trigger",
										"patching_rect" : [ 30.0, 30.0, 130.0, 22.0 ],
										"outlettype" : [ "" ],
										"id" : "obj-1",
										"numinlets" : 0,
										"numoutlets" : 1
									}

								}
, 								{
									"box" : 									{
										"maxclass" : "newobj",
										"text" : "in 2 @comment position",
										"patching_rect" : [ 545.0, 180.0, 137.0, 22.0 ],
										"outlettype" : [ "" ],
										"id" : "obj-2",
										"numinlets" : 0,
										"numoutlets" : 1
									}

								}
, 								{
									"box" : 									{
										"maxclass" : "newobj",
										"text" : "out 1",
										"patching_rect" : [ 382.0, 795.0, 35.0, 22.0 ],
										"id" : "obj-4",
										"numinlets" : 1,
										"numoutlets" : 0
									}

								}
 ],
							"lines" : [ 								{
									"patchline" : 									{
										"source" : [ "obj-45", 0 ],
										"destination" : [ "obj-9", 1 ]
									}

								}
, 								{
									"patchline" : 									{
										"source" : [ "obj-42", 0 ],
										"destination" : [ "obj-45", 0 ]
									}

								}
, 								{
									"patchline" : 									{
										"source" : [ "obj-44", 0 ],
										"destination" : [ "obj-42", 0 ]
									}

								}
, 								{
									"patchline" : 									{
										"source" : [ "obj-36", 0 ],
										"destination" : [ "obj-32", 1 ]
									}

								}
, 								{
									"patchline" : 									{
										"source" : [ "obj-27", 0 ],
										"destination" : [ "obj-32", 0 ]
									}

								}
, 								{
									"patchline" : 									{
										"source" : [ "obj-26", 0 ],
										"destination" : [ "obj-28", 0 ]
									}

								}
, 								{
									"patchline" : 									{
										"source" : [ "obj-30", 0 ],
										"destination" : [ "obj-31", 1 ]
									}

								}
, 								{
									"patchline" : 									{
										"source" : [ "obj-31", 0 ],
										"destination" : [ "obj-9", 0 ]
									}

								}
, 								{
									"patchline" : 									{
										"source" : [ "obj-12", 0 ],
										"destination" : [ "obj-31", 0 ]
									}

								}
, 								{
									"patchline" : 									{
										"source" : [ "obj-29", 0 ],
										"destination" : [ "obj-30", 0 ]
									}

								}
, 								{
									"patchline" : 									{
										"source" : [ "obj-25", 0 ],
										"destination" : [ "obj-30", 1 ]
									}

								}
, 								{
									"patchline" : 									{
										"source" : [ "obj-28", 0 ],
										"destination" : [ "obj-29", 0 ]
									}

								}
, 								{
									"patchline" : 									{
										"source" : [ "obj-22", 0 ],
										"destination" : [ "obj-25", 0 ]
									}

								}
, 								{
									"patchline" : 									{
										"source" : [ "obj-3", 0 ],
										"destination" : [ "obj-16", 1 ]
									}

								}
, 								{
									"patchline" : 									{
										"source" : [ "obj-17", 0 ],
										"destination" : [ "obj-3", 0 ]
									}

								}
, 								{
									"patchline" : 									{
										"source" : [ "obj-10", 0 ],
										"destination" : [ "obj-17", 0 ],
										"order" : 0
									}

								}
, 								{
									"patchline" : 									{
										"source" : [ "obj-16", 0 ],
										"destination" : [ "obj-4", 0 ]
									}

								}
, 								{
									"patchline" : 									{
										"source" : [ "obj-9", 0 ],
										"destination" : [ "obj-16", 0 ]
									}

								}
, 								{
									"patchline" : 									{
										"source" : [ "obj-5", 0 ],
										"destination" : [ "obj-11", 1 ]
									}

								}
, 								{
									"patchline" : 									{
										"source" : [ "obj-10", 0 ],
										"destination" : [ "obj-12", 0 ],
										"order" : 1
									}

								}
, 								{
									"patchline" : 									{
										"source" : [ "obj-11", 0 ],
										"destination" : [ "obj-12", 1 ]
									}

								}
, 								{
									"patchline" : 									{
										"source" : [ "obj-14", 0 ],
										"destination" : [ "obj-13", 1 ]
									}

								}
, 								{
									"patchline" : 									{
										"source" : [ "obj-10", 0 ],
										"destination" : [ "obj-13", 0 ],
										"order" : 2
									}

								}
, 								{
									"patchline" : 									{
										"source" : [ "obj-13", 0 ],
										"destination" : [ "obj-15", 0 ]
									}

								}
, 								{
									"patchline" : 									{
										"source" : [ "obj-7", 0 ],
										"destination" : [ "obj-18", 0 ]
									}

								}
, 								{
									"patchline" : 									{
										"source" : [ "obj-18", 0 ],
										"destination" : [ "obj-8", 0 ]
									}

								}
, 								{
									"patchline" : 									{
										"source" : [ "obj-2", 0 ],
										"destination" : [ "obj-19", 0 ]
									}

								}
, 								{
									"patchline" : 									{
										"source" : [ "obj-19", 0 ],
										"destination" : [ "obj-11", 0 ]
									}

								}
, 								{
									"patchline" : 									{
										"source" : [ "obj-8", 0 ],
										"destination" : [ "obj-23", 0 ]
									}

								}
, 								{
									"patchline" : 									{
										"source" : [ "obj-23", 0 ],
										"destination" : [ "obj-10", 2 ],
										"order" : 2
									}

								}
, 								{
									"patchline" : 									{
										"source" : [ "obj-23", 0 ],
										"destination" : [ "obj-14", 0 ],
										"order" : 1
									}

								}
, 								{
									"patchline" : 									{
										"source" : [ "obj-23", 0 ],
										"destination" : [ "obj-17", 1 ],
										"order" : 0
									}

								}
, 								{
									"patchline" : 									{
										"source" : [ "obj-15", 0 ],
										"destination" : [ "obj-24", 0 ],
										"midpoints" : [ 313.5, 339.0, 289.0, 339.0, 289.0, 174.0, 313.5, 174.0 ]
									}

								}
, 								{
									"patchline" : 									{
										"source" : [ "obj-24", 0 ],
										"destination" : [ "obj-10", 0 ]
									}

								}
, 								{
									"patchline" : 									{
										"source" : [ "obj-20", 0 ],
										"destination" : [ "obj-37", 0 ]
									}

								}
, 								{
									"patchline" : 									{
										"source" : [ "obj-37", 0 ],
										"destination" : [ "obj-21", 0 ]
									}

								}
, 								{
									"patchline" : 									{
										"source" : [ "obj-32", 0 ],
										"destination" : [ "obj-37", 1 ]
									}

								}
, 								{
									"patchline" : 									{
										"source" : [ "obj-34", 0 ],
										"destination" : [ "obj-21", 1 ]
									}

								}
, 								{
									"patchline" : 									{
										"source" : [ "obj-35", 0 ],
										"destination" : [ "obj-18", 1 ],
										"order" : 1
									}

								}
, 								{
									"patchline" : 									{
										"source" : [ "obj-35", 0 ],
										"destination" : [ "obj-10", 1 ],
										"order" : 0
									}

								}
, 								{
									"patchline" : 									{
										"source" : [ "obj-39", 0 ],
										"destination" : [ "obj-29", 1 ],
										"order" : 1
									}

								}
, 								{
									"patchline" : 									{
										"source" : [ "obj-39", 0 ],
										"destination" : [ "obj-25", 1 ],
										"order" : 0
									}

								}
, 								{
									"patchline" : 									{
										"source" : [ "obj-40", 0 ],
										"destination" : [ "obj-19", 1 ]
									}

								}
, 								{
									"patchline" : 									{
										"source" : [ "obj-1", 0 ],
										"destination" : [ "obj-33", 0 ]
									}

								}
, 								{
									"patchline" : 									{
										"source" : [ "obj-41", 0 ],
										"destination" : [ "obj-24", 1 ],
										"order" : 1
									}

								}
, 								{
									"patchline" : 									{
										"source" : [ "obj-21", 0 ],
										"destination" : [ "obj-38", 0 ]
									}

								}
, 								{
									"patchline" : 									{
										"source" : [ "obj-41", 0 ],
										"destination" : [ "obj-23", 1 ],
										"order" : 0
									}

								}
 ],
							"originid" : "pat-12",
							"styles" : [ 								{
									"name" : "wa.buffer",
									"default" : 									{
										"accentcolor" : [ 0.317647, 0.654902, 0.976471, 1.0 ]
									}
,
									"parentstyle" : "",
									"multi" : 0
								}
, 								{
									"name" : "wa.receive",
									"default" : 									{
										"accentcolor" : [ 0.960784, 0.827451, 0.156863, 1.0 ]
									}
,
									"parentstyle" : "",
									"multi" : 0
								}
, 								{
									"name" : "wa.send",
									"default" : 									{
										"accentcolor" : [ 0.701961, 0.415686, 0.886275, 1.0 ]
									}
,
									"parentstyle" : "",
									"multi" : 0
								}
 ]
						}

					}
,
					"id" : "obj-109",
					"maxclass" : "newobj",
					"numinlets" : 5,
					"numoutlets" : 1,
					"outlettype" : [ "multichannelsignal" ],
					"patching_rect" : [ 354.0, 480.0, 125.0, 22.0 ],
					"style" : "wa.patcher",
					"text" : "mc.gen~ @title grains",
					"wrapper_uniquekey" : "u982000540"
				}

			}
, 			{
				"box" : 				{
					"data" : 					{
						"patcher" : 						{
							"fileversion" : 1,
							"appversion" : 							{
								"major" : 9,
								"minor" : 0,
								"revision" : 0,
								"architecture" : "x64",
								"modernui" : 1
							}
,
							"classnamespace" : "dsp.gen",
							"rect" : [ 34.0, 283.0, 3589.0, 1283.0 ],
							"gridonopen" : 2,
							"gridsize" : [ 15.0, 15.0 ],
							"gridsnaponopen" : 2,
							"subpatcher_template" : "wa.main_template",
							"boxes" : [ 								{
									"box" : 									{
										"maxclass" : "newobj",
										"text" : "/",
										"patching_rect" : [ 195.0, 120.0, 29.5, 22.0 ],
										"outlettype" : [ "" ],
										"id" : "obj-13",
										"numinlets" : 2,
										"numoutlets" : 1
									}

								}
, 								{
									"box" : 									{
										"maxclass" : "newobj",
										"text" : "- 1",
										"patching_rect" : [ 195.0, 75.0, 23.0, 22.0 ],
										"outlettype" : [ "" ],
										"id" : "obj-12",
										"numinlets" : 1,
										"numoutlets" : 1
									}

								}
, 								{
									"box" : 									{
										"maxclass" : "newobj",
										"text" : "mc_channelcount",
										"patching_rect" : [ 285.0, 30.0, 103.0, 22.0 ],
										"outlettype" : [ "" ],
										"id" : "obj-11",
										"numinlets" : 0,
										"numoutlets" : 1
									}

								}
, 								{
									"box" : 									{
										"maxclass" : "newobj",
										"text" : "mc_channel",
										"patching_rect" : [ 195.0, 30.0, 73.0, 22.0 ],
										"outlettype" : [ "" ],
										"id" : "obj-10",
										"numinlets" : 0,
										"numoutlets" : 1
									}

								}
, 								{
									"box" : 									{
										"maxclass" : "newobj",
										"text" : "wrap 0 1",
										"patching_rect" : [ 30.0, 210.0, 55.0, 22.0 ],
										"outlettype" : [ "" ],
										"id" : "obj-9",
										"numinlets" : 1,
										"numoutlets" : 1
									}

								}
, 								{
									"box" : 									{
										"maxclass" : "newobj",
										"text" : "+",
										"patching_rect" : [ 30.0, 165.0, 94.0, 22.0 ],
										"outlettype" : [ "" ],
										"id" : "obj-8",
										"numinlets" : 2,
										"numoutlets" : 1
									}

								}
, 								{
									"box" : 									{
										"maxclass" : "newobj",
										"text" : "< 0",
										"patching_rect" : [ 30.0, 300.0, 26.0, 22.0 ],
										"outlettype" : [ "" ],
										"id" : "obj-7",
										"numinlets" : 1,
										"numoutlets" : 1
									}

								}
, 								{
									"box" : 									{
										"maxclass" : "newobj",
										"text" : "delta",
										"patching_rect" : [ 30.0, 255.0, 35.0, 22.0 ],
										"outlettype" : [ "" ],
										"id" : "obj-6",
										"numinlets" : 1,
										"numoutlets" : 1
									}

								}
, 								{
									"box" : 									{
										"maxclass" : "newobj",
										"text" : "phasor",
										"patching_rect" : [ 30.0, 75.0, 45.0, 22.0 ],
										"outlettype" : [ "" ],
										"id" : "obj-5",
										"numinlets" : 2,
										"numoutlets" : 1
									}

								}
, 								{
									"box" : 									{
										"maxclass" : "newobj",
										"text" : "in 1 @comment intervall",
										"patching_rect" : [ 30.0, 30.0, 137.0, 22.0 ],
										"outlettype" : [ "" ],
										"id" : "obj-1",
										"numinlets" : 0,
										"numoutlets" : 1
									}

								}
, 								{
									"box" : 									{
										"maxclass" : "newobj",
										"text" : "out 1",
										"patching_rect" : [ 30.0, 345.0, 35.0, 22.0 ],
										"id" : "obj-4",
										"numinlets" : 1,
										"numoutlets" : 0
									}

								}
 ],
							"lines" : [ 								{
									"patchline" : 									{
										"source" : [ "obj-6", 0 ],
										"destination" : [ "obj-7", 0 ]
									}

								}
, 								{
									"patchline" : 									{
										"source" : [ "obj-7", 0 ],
										"destination" : [ "obj-4", 0 ]
									}

								}
, 								{
									"patchline" : 									{
										"source" : [ "obj-5", 0 ],
										"destination" : [ "obj-8", 0 ]
									}

								}
, 								{
									"patchline" : 									{
										"source" : [ "obj-8", 0 ],
										"destination" : [ "obj-9", 0 ]
									}

								}
, 								{
									"patchline" : 									{
										"source" : [ "obj-9", 0 ],
										"destination" : [ "obj-6", 0 ]
									}

								}
, 								{
									"patchline" : 									{
										"source" : [ "obj-10", 0 ],
										"destination" : [ "obj-12", 0 ]
									}

								}
, 								{
									"patchline" : 									{
										"source" : [ "obj-12", 0 ],
										"destination" : [ "obj-13", 0 ]
									}

								}
, 								{
									"patchline" : 									{
										"source" : [ "obj-11", 0 ],
										"destination" : [ "obj-13", 1 ]
									}

								}
, 								{
									"patchline" : 									{
										"source" : [ "obj-13", 0 ],
										"destination" : [ "obj-8", 1 ]
									}

								}
, 								{
									"patchline" : 									{
										"source" : [ "obj-1", 0 ],
										"destination" : [ "obj-5", 0 ]
									}

								}
 ],
							"originid" : "pat-14"
						}

					}
,
					"id" : "obj-98",
					"maxclass" : "newobj",
					"numinlets" : 1,
					"numoutlets" : 1,
					"outlettype" : [ "multichannelsignal" ],
					"patching_rect" : [ 345.0, 300.0, 126.0, 22.0 ],
					"style" : "wa.patcher",
					"text" : "mc.gen~ @title trigger",
					"wrapper_uniquekey" : "u546000550"
				}

			}
, 			{
				"box" : 				{
					"id" : "obj-93",
					"maxclass" : "newobj",
					"numinlets" : 1,
					"numoutlets" : 1,
					"outlettype" : [ "multichannelsignal" ],
					"patching_rect" : [ 345.0, 255.0, 50.0, 22.0 ],
					"text" : "mc.sig~"
				}

			}
, 			{
				"box" : 				{
					"id" : "obj-82",
					"maxclass" : "message",
					"numinlets" : 2,
					"numoutlets" : 1,
					"outlettype" : [ "" ],
					"patching_rect" : [ 560.0, 630.0, 111.0, 22.0 ],
					"text" : "fill 1, apply hanning"
				}

			}
, 			{
				"box" : 				{
					"id" : "obj-54",
					"maxclass" : "newobj",
					"numinlets" : 1,
					"numoutlets" : 1,
					"outlettype" : [ "bang" ],
					"patching_rect" : [ 560.0, 585.0, 58.0, 22.0 ],
					"text" : "loadbang"
				}

			}
, 			{
				"box" : 				{
					"id" : "obj-49",
					"maxclass" : "newobj",
					"numinlets" : 1,
					"numoutlets" : 2,
					"outlettype" : [ "float", "bang" ],
					"patching_rect" : [ 560.0, 675.0, 221.0, 22.0 ],
					"style" : "wa.buffer",
					"text" : "buffer~ granular_window @samps 1024"
				}

			}
, 			{
				"box" : 				{
					"id" : "obj-68",
					"maxclass" : "newobj",
					"numinlets" : 1,
					"numoutlets" : 2,
					"outlettype" : [ "signal", "signal" ],
					"patching_rect" : [ 354.0, 584.0, 84.0, 22.0 ],
					"text" : "mc.unpack~ 2"
				}

			}
, 			{
				"box" : 				{
					"id" : "obj-67",
					"maxclass" : "newobj",
					"numinlets" : 2,
					"numoutlets" : 1,
					"outlettype" : [ "multichannelsignal" ],
					"patching_rect" : [ 354.0, 525.0, 140.0, 22.0 ],
					"text" : "mc.stereo~ @autogain 1"
				}

			}
, 			{
				"box" : 				{
					"comment" : "",
					"id" : "obj-123",
					"index" : 1,
					"maxclass" : "inlet",
					"numinlets" : 0,
					"numoutlets" : 1,
					"outlettype" : [ "signal" ],
					"patching_rect" : [ 345.0, 71.0, 30.0, 30.0 ]
				}

			}
, 			{
				"box" : 				{
					"comment" : "",
					"id" : "obj-125",
					"index" : 2,
					"maxclass" : "outlet",
					"numinlets" : 1,
					"numoutlets" : 0,
					"patching_rect" : [ 419.0, 666.0, 30.0, 30.0 ]
				}

			}
, 			{
				"box" : 				{
					"comment" : "",
					"id" : "obj-126",
					"index" : 1,
					"maxclass" : "outlet",
					"numinlets" : 1,
					"numoutlets" : 0,
					"patching_rect" : [ 354.0, 666.0, 30.0, 30.0 ]
				}

			}
, 			{
				"box" : 				{
					"id" : "obj-104",
					"maxclass" : "newobj",
					"numinlets" : 2,
					"numoutlets" : 1,
					"outlettype" : [ "float" ],
					"patching_rect" : [ 945.0, 390.0, 52.0, 22.0 ],
					"text" : "/ 10000."
				}

			}
, 			{
				"box" : 				{
					"id" : "obj-103",
					"maxclass" : "newobj",
					"numinlets" : 2,
					"numoutlets" : 1,
					"outlettype" : [ "" ],
					"patching_rect" : [ 945.0, 345.0, 86.0, 22.0 ],
					"text" : "random 10000"
				}

			}
, 			{
				"box" : 				{
					"id" : "obj-102",
					"maxclass" : "newobj",
					"numinlets" : 2,
					"numoutlets" : 3,
					"outlettype" : [ "bang", "bang", "int" ],
					"patching_rect" : [ 945.0, 300.0, 41.0, 22.0 ],
					"text" : "uzi 30"
				}

			}
, 			{
				"box" : 				{
					"id" : "obj-6",
					"maxclass" : "newobj",
					"numinlets" : 1,
					"numoutlets" : 1,
					"outlettype" : [ "" ],
					"patching_rect" : [ 30.0, 75.0, 57.0, 22.0 ],
					"text" : "unpack s"
				}

			}
, 			{
				"box" : 				{
					"id" : "obj-5",
					"maxclass" : "newobj",
					"numinlets" : 1,
					"numoutlets" : 2,
					"outlettype" : [ "", "" ],
					"patching_rect" : [ 30.0, 30.0, 717.0, 22.0 ],
					"text" : "patcherargs  #0_buffername @triggerintervall 1. @startpos 0. @grainsize 20 @spray 10. @spread 0. @basenote 60 @channels 30",
					"varname" : "u346008294"
				}

			}
 ],
		"lines" : [ 			{
				"patchline" : 				{
					"destination" : [ "obj-67", 1 ],
					"source" : [ "obj-1", 0 ]
				}

			}
, 			{
				"patchline" : 				{
					"destination" : [ "obj-3", 0 ],
					"source" : [ "obj-10", 0 ]
				}

			}
, 			{
				"patchline" : 				{
					"destination" : [ "obj-103", 0 ],
					"source" : [ "obj-102", 0 ]
				}

			}
, 			{
				"patchline" : 				{
					"destination" : [ "obj-104", 0 ],
					"source" : [ "obj-103", 0 ]
				}

			}
, 			{
				"patchline" : 				{
					"destination" : [ "obj-13", 0 ],
					"source" : [ "obj-104", 0 ]
				}

			}
, 			{
				"patchline" : 				{
					"destination" : [ "obj-67", 0 ],
					"source" : [ "obj-109", 0 ]
				}

			}
, 			{
				"patchline" : 				{
					"destination" : [ "obj-109", 3 ],
					"source" : [ "obj-11", 0 ]
				}

			}
, 			{
				"patchline" : 				{
					"destination" : [ "obj-109", 1 ],
					"source" : [ "obj-111", 0 ]
				}

			}
, 			{
				"patchline" : 				{
					"destination" : [ "obj-109", 0 ],
					"source" : [ "obj-12", 0 ]
				}

			}
, 			{
				"patchline" : 				{
					"destination" : [ "obj-109", 2 ],
					"source" : [ "obj-121", 0 ]
				}

			}
, 			{
				"patchline" : 				{
					"destination" : [ "obj-2", 0 ],
					"order" : 1,
					"source" : [ "obj-123", 0 ]
				}

			}
, 			{
				"patchline" : 				{
					"destination" : [ "obj-4", 0 ],
					"order" : 0,
					"source" : [ "obj-123", 0 ]
				}

			}
, 			{
				"patchline" : 				{
					"destination" : [ "obj-1", 0 ],
					"source" : [ "obj-13", 0 ]
				}

			}
, 			{
				"patchline" : 				{
					"destination" : [ "obj-109", 4 ],
					"source" : [ "obj-14", 0 ]
				}

			}
, 			{
				"patchline" : 				{
					"destination" : [ "obj-11", 0 ],
					"order" : 1,
					"source" : [ "obj-15", 0 ]
				}

			}
, 			{
				"patchline" : 				{
					"destination" : [ "obj-14", 0 ],
					"order" : 0,
					"source" : [ "obj-15", 0 ]
				}

			}
, 			{
				"patchline" : 				{
					"destination" : [ "obj-109", 0 ],
					"source" : [ "obj-17", 0 ]
				}

			}
, 			{
				"patchline" : 				{
					"destination" : [ "obj-20", 0 ],
					"source" : [ "obj-18", 0 ]
				}

			}
, 			{
				"patchline" : 				{
					"destination" : [ "obj-93", 0 ],
					"source" : [ "obj-19", 0 ]
				}

			}
, 			{
				"patchline" : 				{
					"destination" : [ "obj-111", 0 ],
					"source" : [ "obj-2", 1 ]
				}

			}
, 			{
				"patchline" : 				{
					"destination" : [ "obj-121", 0 ],
					"source" : [ "obj-2", 2 ]
				}

			}
, 			{
				"patchline" : 				{
					"destination" : [ "obj-14", 0 ],
					"source" : [ "obj-2", 4 ]
				}

			}
, 			{
				"patchline" : 				{
					"destination" : [ "obj-15", 0 ],
					"source" : [ "obj-2", 6 ]
				}

			}
, 			{
				"patchline" : 				{
					"destination" : [ "obj-17", 0 ],
					"source" : [ "obj-2", 3 ]
				}

			}
, 			{
				"patchline" : 				{
					"destination" : [ "obj-8", 0 ],
					"source" : [ "obj-2", 5 ]
				}

			}
, 			{
				"patchline" : 				{
					"destination" : [ "obj-9", 0 ],
					"source" : [ "obj-2", 0 ]
				}

			}
, 			{
				"patchline" : 				{
					"destination" : [ "obj-102", 1 ],
					"source" : [ "obj-20", 1 ]
				}

			}
, 			{
				"patchline" : 				{
					"destination" : [ "obj-102", 0 ],
					"source" : [ "obj-20", 0 ]
				}

			}
, 			{
				"patchline" : 				{
					"destination" : [ "obj-13", 1 ],
					"midpoints" : [ 1000.5, 330.0, 1043.0, 330.0, 1043.0, 432.0, 1003.5, 432.0 ],
					"source" : [ "obj-20", 2 ]
				}

			}
, 			{
				"patchline" : 				{
					"destination" : [ "obj-23", 0 ],
					"source" : [ "obj-22", 0 ]
				}

			}
, 			{
				"patchline" : 				{
					"destination" : [ "obj-102", 0 ],
					"source" : [ "obj-23", 0 ]
				}

			}
, 			{
				"patchline" : 				{
					"destination" : [ "obj-1", 0 ],
					"midpoints" : [ 990.5, 201.0, 1162.6640625, 201.0, 1162.6640625, 477.0, 954.5, 477.0 ],
					"source" : [ "obj-3", 1 ]
				}

			}
, 			{
				"patchline" : 				{
					"destination" : [ "obj-18", 0 ],
					"source" : [ "obj-3", 0 ]
				}

			}
, 			{
				"patchline" : 				{
					"destination" : [ "obj-109", 1 ],
					"source" : [ "obj-4", 0 ]
				}

			}
, 			{
				"patchline" : 				{
					"destination" : [ "obj-11", 0 ],
					"source" : [ "obj-4", 3 ]
				}

			}
, 			{
				"patchline" : 				{
					"destination" : [ "obj-2", 0 ],
					"source" : [ "obj-5", 1 ]
				}

			}
, 			{
				"patchline" : 				{
					"destination" : [ "obj-6", 0 ],
					"source" : [ "obj-5", 0 ]
				}

			}
, 			{
				"patchline" : 				{
					"destination" : [ "obj-82", 0 ],
					"source" : [ "obj-54", 0 ]
				}

			}
, 			{
				"patchline" : 				{
					"destination" : [ "obj-12", 0 ],
					"source" : [ "obj-6", 0 ]
				}

			}
, 			{
				"patchline" : 				{
					"destination" : [ "obj-68", 0 ],
					"source" : [ "obj-67", 0 ]
				}

			}
, 			{
				"patchline" : 				{
					"destination" : [ "obj-125", 0 ],
					"source" : [ "obj-68", 1 ]
				}

			}
, 			{
				"patchline" : 				{
					"destination" : [ "obj-126", 0 ],
					"source" : [ "obj-68", 0 ]
				}

			}
, 			{
				"patchline" : 				{
					"destination" : [ "obj-7", 0 ],
					"source" : [ "obj-8", 0 ]
				}

			}
, 			{
				"patchline" : 				{
					"destination" : [ "obj-49", 0 ],
					"source" : [ "obj-82", 0 ]
				}

			}
, 			{
				"patchline" : 				{
					"destination" : [ "obj-93", 0 ],
					"source" : [ "obj-9", 0 ]
				}

			}
, 			{
				"patchline" : 				{
					"destination" : [ "obj-98", 0 ],
					"source" : [ "obj-93", 0 ]
				}

			}
, 			{
				"patchline" : 				{
					"destination" : [ "obj-109", 0 ],
					"source" : [ "obj-98", 0 ]
				}

			}
 ],
		"originid" : "pat-6",
		"styles" : [ 			{
				"name" : "wa.buffer",
				"default" : 				{
					"accentcolor" : [ 0.317647, 0.654902, 0.976471, 1.0 ]
				}
,
				"parentstyle" : "",
				"multi" : 0
			}
, 			{
				"name" : "wa.patcher",
				"default" : 				{
					"accentcolor" : [ 0.439216, 0.74902, 0.254902, 1.0 ]
				}
,
				"parentstyle" : "",
				"multi" : 0
			}
, 			{
				"name" : "wa.receive",
				"default" : 				{
					"accentcolor" : [ 0.960784, 0.827451, 0.156863, 1.0 ]
				}
,
				"parentstyle" : "",
				"multi" : 0
			}
, 			{
				"name" : "wa.send",
				"default" : 				{
					"accentcolor" : [ 0.701961, 0.415686, 0.886275, 1.0 ]
				}
,
				"parentstyle" : "",
				"multi" : 0
			}
 ]
	}

}
